<svg width="11" height="11" viewBox="0 0 11 11" fill="none" xmlns="http://www.w3.org/2000/svg">
<g clip-path="url(#clip0_422_106)">
<path d="M10.4995 6.57543C10.4156 6.82823 10.3437 7.08506 10.2438 7.33385C9.95615 8.05617 9.52067 8.67414 8.94536 9.1918C8.35007 9.72551 7.6629 10.1027 6.89182 10.3154C6.14872 10.5201 5.39362 10.5682 4.64252 10.4077C2.68887 9.99437 1.39043 8.83064 0.739208 6.94461C0.491505 6.22229 0.447558 5.4759 0.551434 4.71748C0.67129 3.84268 0.994902 3.04813 1.52626 2.34589C2.06562 1.63561 2.7448 1.10191 3.56382 0.748775C3.76757 0.660493 3.97932 0.592275 4.18707 0.524056C4.35487 0.467876 4.51068 0.512018 4.59858 0.636416C4.69047 0.764827 4.68647 0.913302 4.56662 1.05776C4.17908 1.54733 3.93937 2.10512 3.8315 2.72309C3.72363 3.35311 3.76757 3.97109 3.97133 4.57703C4.19506 5.24717 4.57461 5.81298 5.10996 6.26644C5.62934 6.70785 6.22862 6.98474 6.90381 7.10111C7.53505 7.20945 8.15431 7.1613 8.75759 6.94862C9.17708 6.80014 9.56062 6.58345 9.90821 6.29854C10.0081 6.21427 10.12 6.1621 10.2598 6.19421C10.3836 6.2223 10.4476 6.31459 10.4995 6.41491C10.4995 6.47109 10.4995 6.52326 10.4995 6.57543Z" fill="#52C9DD"/>
</g>
<defs>
<clipPath id="clip0_422_106">
<rect width="10" height="10" fill="white" transform="translate(0.5 0.5)"/>
</clipPath>
</defs>
</svg>
