<svg width="50" height="50" viewBox="0 0 50 50" fill="none" xmlns="http://www.w3.org/2000/svg">
<g id="moonicon" clip-path="url(#clip0)">
<path id="Vector" d="M49.9975 30.3773C49.578 31.6413 49.2184 32.9254 48.719 34.1694C47.2807 37.781 45.1034 40.8709 42.2268 43.4592C39.2504 46.1277 35.8145 48.0137 31.9591 49.0771C28.2436 50.1004 24.4681 50.3412 20.7126 49.5386C10.9443 47.472 4.45214 41.6534 1.19605 32.2232C-0.042468 28.6116 -0.262204 24.8797 0.257172 21.0875C0.856453 16.7135 2.47451 12.7408 5.13132 9.22959C7.82809 5.67822 11.224 3.00968 15.3191 1.24403C16.3379 0.802614 17.3966 0.461522 18.4354 0.12043C19.2744 -0.160469 20.0534 0.0602378 20.4929 0.682229C20.9523 1.32428 20.9324 2.06666 20.3331 2.78897C18.3954 5.23681 17.1968 8.02573 16.6575 11.1156C16.1181 14.2657 16.3379 17.3556 17.3567 20.3853C18.4753 23.736 20.373 26.5651 23.0498 28.8323C25.6467 31.0394 28.6431 32.4238 32.0191 33.0057C35.1753 33.5474 38.2716 33.3067 41.2879 32.2432C43.3854 31.5009 45.3031 30.4174 47.041 28.9928C47.5404 28.5715 48.0998 28.3107 48.7989 28.4712C49.4182 28.6116 49.7378 29.0731 49.9975 29.5747C49.9975 29.8556 49.9975 30.1164 49.9975 30.3773Z" fill="#52C9DD"/>
</g>
<defs>
<clipPath id="clip0">
<rect width="50" height="50" fill="white"/>
</clipPath>
</defs>
</svg>
