<svg width="11" height="12" viewBox="0 0 11 12" fill="none" xmlns="http://www.w3.org/2000/svg">
<path d="M4.99093 11.6784C4.86594 11.5494 4.79573 11.3745 4.79573 11.1922C4.79573 11.0099 4.86594 10.835 4.99093 10.7061L9.18633 6.37966L4.99094 2.05354C4.86591 1.92461 4.79567 1.74974 4.79567 1.5674C4.79567 1.38506 4.86591 1.21019 4.99094 1.08125C5.11597 0.952318 5.28554 0.879884 5.46236 0.879884C5.63918 0.879884 5.80876 0.952318 5.93379 1.08125L10.6003 5.89351C10.7252 6.0225 10.7954 6.19735 10.7954 6.37966C10.7954 6.56196 10.7252 6.73681 10.6003 6.8658L5.93378 11.6784C5.8087 11.8072 5.63914 11.8795 5.46236 11.8795C5.28558 11.8795 5.11602 11.8072 4.99093 11.6784ZM1.46239 11.8799C1.54993 11.88 1.63663 11.8623 1.71749 11.8277C1.79835 11.7931 1.87178 11.7423 1.93353 11.6784L6.60007 6.8661C6.66202 6.80228 6.71118 6.7265 6.74471 6.64308C6.77825 6.55967 6.79551 6.47025 6.79551 6.37995C6.79551 6.28965 6.77825 6.20023 6.74471 6.11682C6.71118 6.0334 6.66202 5.95762 6.60007 5.8938L1.93353 1.08155C1.8085 0.952612 1.63892 0.880178 1.46211 0.880178C1.28529 0.880178 1.11571 0.952612 0.990681 1.08155C0.865651 1.21048 0.79541 1.38535 0.79541 1.56769C0.79541 1.75003 0.865651 1.9249 0.990681 2.05384L5.18608 6.37995L0.990965 10.7064C0.897707 10.8025 0.834193 10.925 0.808458 11.0583C0.782724 11.1917 0.795924 11.33 0.84639 11.4556C0.896856 11.5812 0.98232 11.6886 1.09197 11.7641C1.20162 11.8396 1.33053 11.8799 1.46239 11.8799Z" fill="#52C9DD"/>
</svg>
