<svg width="10" height="11" viewBox="0 0 10 11" fill="none" xmlns="http://www.w3.org/2000/svg">
<path d="M5.80447 0.20153C5.92947 0.330485 5.99968 0.505349 5.99968 0.687676C5.99968 0.870003 5.92947 1.04487 5.80447 1.17382L1.60908 5.50023L5.80447 9.82634C5.9295 9.95527 5.99974 10.1301 5.99974 10.3125C5.99974 10.4948 5.9295 10.6697 5.80447 10.7986C5.67944 10.9276 5.50987 11 5.33305 11C5.15623 11 4.98665 10.9276 4.86162 10.7986L0.195087 5.98637C0.0701661 5.85738 4.64868e-07 5.68253 4.80805e-07 5.50023C4.96743e-07 5.31792 0.0701661 5.14307 0.195087 5.01408L4.86162 0.20153C4.98671 0.0727077 5.15627 0.000350529 5.33305 0.000350544C5.50983 0.00035056 5.67939 0.0727078 5.80447 0.20153ZM9.33302 8.95365e-07C9.24548 -0.000124044 9.15878 0.0176191 9.07792 0.0522069C8.99706 0.0867957 8.92363 0.137545 8.86188 0.20153L4.19534 5.01379C4.13339 5.0776 4.08423 5.15338 4.0507 5.2368C4.01716 5.32022 3.9999 5.40963 3.9999 5.49993C3.9999 5.59023 4.01716 5.67965 4.0507 5.76307C4.08423 5.84648 4.13339 5.92227 4.19534 5.98608L8.86188 10.7983C8.98691 10.9273 9.15649 10.9997 9.3333 10.9997C9.51012 10.9997 9.6797 10.9273 9.80473 10.7983C9.92976 10.6694 10 10.4945 10 10.3122C10 10.1299 9.92976 9.95498 9.80473 9.82604L5.60933 5.49993L9.80444 1.17353C9.8977 1.0774 9.96122 0.954899 9.98695 0.821535C10.0127 0.688171 9.99949 0.549932 9.94902 0.424307C9.89855 0.298681 9.81309 0.191314 9.70344 0.115786C9.59379 0.0402574 9.46488 -3.62864e-05 9.33302 8.95365e-07Z" fill="#52C9DD"/>
</svg>
